# xmcd
#
# Track frame offsets:
#	150
#	14209
#	29264
#	45389
#	59187
#	73948
#	87184
#	103461
#	114122
#	129402
#	146878
#	163232
#	178268
#	189758
#	206276
#	222281
#	240126
#
# Disc length: 3477 seconds
#
# Revision: 0
# Processed by: cddbd v1.5.2PL0 Copyright (c) Steve Scherf et al.
# Submitted via: audiograbber 1.83.01
#
DISCID=fa0d9311
DTITLE=Various Artist - CDXMAS 1035
DYEAR=2015
DGENRE=Country
TTITLE0=John Berry - BlueChristmas
TTITLE1=Robby Johnson - Happy Xmas War Is Over
TTITLE2=Claire Petrie ft. T Graham Brown - He Would Be King
TTITLE3=J Michael Harter - Another Trip Around The Sun
TTITLE4=Skylar Elise - Motorcycle Santa
TTITLE5=The Nickel Slots - A Shot And A Beer For Christmas
TTITLE6=Maiden Dixie - O Come O Come Emmanuel
TTITLE7=Sarah Dunn Band - Christmas Day
TTITLE8=Greg Sterling - That Better Be Santa Claus
TTITLE9=Allie Louise - Hometown Christmas
TTITLE10=Troy Johnson - Children On Christmas Day
TTITLE11=CJ Garton - Mary Did You Know
TTITLE12=Robby Johnson - Rudolph The Red Nosed Reindeer
TTITLE13=Rusty Rierson - The Reason For The Season
TTITLE14=Leslie Cours Mather  - Santa Baby You'll Be Mine
TTITLE15=Teea Goans - All I Want For Christmas Is You
TTITLE16=Teea Goans - They Saw A King
EXTD=
EXTT0=
EXTT1=
EXTT2=
EXTT3=
EXTT4=
EXTT5=
EXTT6=
EXTT7=
EXTT8=
EXTT9=
EXTT10=
EXTT11=
EXTT12=
EXTT13=
EXTT14=
EXTT15=
EXTT16=
PLAYORDER=
